<svg xmlns="http://www.w3.org/2000/svg" height="20" viewBox="0 96 960 960" width="20"><path d="M696 960q-50 0-85-35t-35-85q0-8 1-14.5t3-14.5L342 666q-15 16-35.354 23T264 696q-50 0-85-35t-35-85q0-50 35-85t85-35q22 0 42.5 7.5T342 486l238-145q-2-8-3-14.5t-1-14.5q0-50 35-85t85-35q50 0 85 35t35 85q0 50-35 85t-85 35q-22.292 0-42.646-7T618 402L380 547q2 8 3 14.5t1 14.5q0 8-1 14.5t-3 14.5l238 145q15-17 35.354-23.5T696 720q50 0 85 35t35 85q0 50-35 85t-85 35Zm0-600q20.4 0 34.2-13.8Q744 332.4 744 312q0-20.4-13.8-34.2Q716.4 264 696 264q-20.4 0-34.2 13.8Q648 291.6 648 312q0 20.4 13.8 34.2Q675.6 360 696 360ZM264 624q20.4 0 34.2-13.8Q312 596.4 312 576q0-20.4-13.8-34.2Q284.4 528 264 528q-20.4 0-34.2 13.8Q216 555.6 216 576q0 20.4 13.8 34.2Q243.6 624 264 624Zm432 264q20.4 0 34.2-13.8Q744 860.4 744 840q0-20.4-13.8-34.2Q716.4 792 696 792q-20.4 0-34.2 13.8Q648 819.6 648 840q0 20.4 13.8 34.2Q675.6 888 696 888Zm0-576ZM264 576Zm432 264Z"/></svg>